<svg xmlns="http://www.w3.org/2000/svg" width="256" height="256" viewBox="0 0 256 256" role="img" aria-label="Crucible Feedback">
  <defs>
    <marker id="arrow-teal" viewBox="0 0 10 10" refX="9" refY="5" markerWidth="6" markerHeight="6" orient="auto">
      <path d="M 0 0 L 10 5 L 0 10 Z" fill="#14B8A6" />
    </marker>
    <marker id="arrow-amber" viewBox="0 0 10 10" refX="9" refY="5" markerWidth="6" markerHeight="6" orient="auto">
      <path d="M 0 0 L 10 5 L 0 10 Z" fill="#F59E0B" />
    </marker>
  </defs>

  <circle cx="128" cy="128" r="104" fill="none" stroke="#475569" stroke-width="4" opacity="0.15" />

  <path d="M 40 128 A 88 88 0 0 1 128 40" fill="none" stroke="#14B8A6" stroke-width="10" stroke-linecap="round" marker-end="url(#arrow-teal)" />
  <path d="M 216 128 A 88 88 0 0 1 128 216" fill="none" stroke="#F59E0B" stroke-width="10" stroke-linecap="round" marker-end="url(#arrow-amber)" />

  <rect x="88" y="72" width="80" height="14" rx="6" fill="#475569" />
  <path d="M 84 86 L 172 86 L 154 162 Q 128 182 102 162 Z" fill="#475569" />
  <path d="M 100 100 L 156 100" stroke="#14B8A6" stroke-width="4" stroke-linecap="round" opacity="0.8" />
  <path d="M 104 112 L 152 112" stroke="#14B8A6" stroke-width="4" stroke-linecap="round" opacity="0.6" />

  <path d="M 128 118 L 146 136 L 128 154 L 110 136 Z" fill="#F59E0B" />
  <path d="M 116 136 L 140 136" stroke="#475569" stroke-width="3" stroke-linecap="round" opacity="0.4" />
</svg>
